<?xml version="1.0" encoding="UTF-8" standalone="no"?>
<!DOCTYPE svg PUBLIC "-//W3C//DTD SVG 1.1//EN" "http://www.w3.org/Graphics/SVG/1.1/DTD/svg11.dtd">
<svg width="100%" height="100%" viewBox="0 0 182 222" version="1.1" xmlns="http://www.w3.org/2000/svg" xmlns:xlink="http://www.w3.org/1999/xlink" xml:space="preserve" xmlns:serif="http://www.serif.com/" style="fill-rule:evenodd;clip-rule:evenodd;stroke-linejoin:round;stroke-miterlimit:2;">
    <g transform="matrix(1,0,0,1,-73,-754)">
        <g transform="matrix(1.81098,0,0,1.68144,-777.135,-640.707)">
            <g id="Addubby-Logomark" transform="matrix(1.52915,0,0,1.6488,383.38,821.677)">
                <g transform="matrix(1,0,0,1,79.554,5.0805)">
                    <path d="M0,43.352C-1.663,43.352 -3.01,42.005 -3.01,40.342L-3.01,3.01C-3.01,1.348 -1.663,0 0,0C1.663,0 3.01,1.348 3.01,3.01L3.01,40.342C3.01,42.005 1.663,43.352 0,43.352" style="fill:rgb(198,57,47);"/>
                </g>
                <g transform="matrix(1,0,0,1,92.6453,21.9325)">
                    <path d="M0,26.5C-1.663,26.5 -3.01,25.153 -3.01,23.49L-3.01,3.01C-3.01,1.347 -1.663,0 0,0C1.663,0 3.01,1.347 3.01,3.01L3.01,23.49C3.01,25.153 1.663,26.5 0,26.5" style="fill:rgb(198,57,47);"/>
                </g>
                <g transform="matrix(1,0,0,1,105.727,24.6635)">
                    <path d="M0,23.769C-1.663,23.769 -3.01,22.422 -3.01,20.759L-3.01,3.01C-3.01,1.347 -1.663,0 0,0C1.663,0 3.01,1.347 3.01,3.01L3.01,20.759C3.01,22.422 1.663,23.769 0,23.769" style="fill:rgb(198,57,47);"/>
                </g>
                <g transform="matrix(1,0,0,1,84.6336,32.1465)">
                    <path d="M0,52.307C-1.663,52.307 -3.01,50.96 -3.01,49.297L-3.01,39.066C-17.658,32.28 -19.351,23.489 -20.601,17.002C-20.765,16.149 -20.925,15.315 -21.112,14.505C-21.472,13.309 -24.726,8.758 -27.533,5.276C-28.576,3.982 -28.373,2.087 -27.079,1.044C-25.786,0 -23.889,0.203 -22.846,1.498C-20.778,4.063 -15.896,10.334 -15.246,13.151C-15.042,14.032 -14.868,14.937 -14.689,15.863C-13.474,22.172 -12.218,28.696 1.168,34.332C2.284,34.802 3.01,35.895 3.01,37.106L3.01,49.297C3.01,50.96 1.663,52.307 0,52.307" style="fill:rgb(198,57,47);"/>
                </g>
                <g transform="matrix(1,0,0,1,100.648,27.3975)">
                    <path d="M0,57.056C-1.663,57.056 -3.01,55.709 -3.01,54.046L-3.01,41.855C-3.01,40.644 -2.284,39.551 -1.168,39.081C13.907,32.733 15.169,25.471 15.169,18.577L15.169,3.01C15.169,1.348 16.516,0 18.179,0C19.841,0 21.188,1.348 21.188,3.01L21.188,18.577C21.188,27.4 18.935,36.537 3.01,43.821L3.01,54.046C3.01,55.709 1.663,57.056 0,57.056" style="fill:rgb(198,57,47);"/>
                </g>
            </g>
        </g>
    </g>
</svg>
