<svg id="Riolabs-logo" xmlns="http://www.w3.org/2000/svg" viewBox="0 0 122.85 120"><defs><style>.cls-1{fill:#005dac;}</style></defs><g id="riolabs-logomark-positive"><path class="cls-1" d="M119.05,71.83,85.68,14A27.85,27.85,0,0,0,63,.09a12.44,12.44,0,0,0-2.86,0A27.58,27.58,0,0,0,38.34,12.31,12.8,12.8,0,0,0,37.19,14L3.79,71.83a28,28,0,0,0,24.23,42H43a12.52,12.52,0,0,0,1.73,2.34,12.3,12.3,0,1,0,.48-17.38A12.71,12.71,0,0,0,43,101.6H28A15.79,15.79,0,0,1,14.37,77.93l6.45-11.17c3.94-6.57,25.94-42.17,40.78-42.17,15.78,0,39.33,40.29,40.93,43.05l.06.1,0,.06h0l5.85,10.15A15.77,15.77,0,0,1,94.81,101.6H80.45a6.11,6.11,0,1,0,0,12.21H94.81a28,28,0,0,0,24.24-42Z"/><path class="cls-1" d="M77.32,86,77,85.61a32,32,0,0,0-30.63-9.19,6.1,6.1,0,1,0,2.76,11.89A19.77,19.77,0,0,1,68,93.9a1.9,1.9,0,0,0,.18.2A6.1,6.1,0,0,0,77.32,86Z"/><path class="cls-1" d="M44.8,68.92a40.72,40.72,0,0,1,8.83-1,40,40,0,0,1,29,12.52l.26.3a6,6,0,0,0,4.42,1.94,6.13,6.13,0,0,0,4.48-10.32c-.12-.13-.23-.26-.36-.39A51.93,51.93,0,0,0,42.11,57a6.1,6.1,0,1,0,2.69,11.9Z"/></g></svg>