<?xml version="1.0" encoding="UTF-8" standalone="no"?>
<!DOCTYPE svg PUBLIC "-//W3C//DTD SVG 1.1//EN" "http://www.w3.org/Graphics/SVG/1.1/DTD/svg11.dtd">
<svg width="100%" height="100%" viewBox="0 0 659 289" version="1.1" xmlns="http://www.w3.org/2000/svg" xmlns:xlink="http://www.w3.org/1999/xlink" xml:space="preserve" xmlns:serif="http://www.serif.com/" style="fill-rule:evenodd;clip-rule:evenodd;stroke-linejoin:round;stroke-miterlimit:2;">
    <g transform="matrix(1,0,0,1,0,-1180)">
        <g id="Addubby-Logotype-Padding" transform="matrix(1.28711,0,0,2.04087,-257.422,-1585.38)">
            <rect x="200" y="1355" width="512" height="141.214" style="fill:none;"/>
            <g id="Addubby-Logotype" transform="matrix(2.15155,0,0,1.35842,257.759,1259.27)">
                <g transform="matrix(1,0,0,1,6.077,119.086)">
                    <path d="M0,9.864C0,10.94 0.385,11.769 1.158,12.352C1.929,12.935 3.087,13.226 4.63,13.226C6.192,13.226 7.531,12.773 8.648,11.867C9.765,10.962 10.323,9.765 10.323,8.277L10.323,6.743L3.813,6.743C2.597,6.743 1.657,7.012 0.994,7.55C0.331,8.088 0,8.859 0,9.864M-6.02,9.864C-6.02,7.269 -5.153,5.247 -3.418,3.797C-1.685,2.347 0.463,1.622 3.023,1.622L10.323,1.622L10.323,0.72C10.323,-0.418 9.878,-1.328 8.989,-2.011C8.099,-2.694 6.855,-3.035 5.257,-3.035C4.167,-3.035 3.187,-2.853 2.315,-2.487C1.443,-2.121 0.562,-1.625 -0.327,-0.998C-0.854,-0.649 -1.408,-0.475 -1.989,-0.475C-2.715,-0.475 -3.337,-0.729 -3.854,-1.238C-4.372,-1.746 -4.631,-2.364 -4.631,-3.09C-4.631,-3.761 -4.386,-4.37 -3.896,-4.915C-1.734,-7.294 1.316,-8.483 5.257,-8.483C8.742,-8.483 11.461,-7.666 13.414,-6.032C15.367,-4.398 16.343,-2.11 16.343,0.832L16.343,15.106C16.343,15.905 16.05,16.595 15.463,17.176C14.877,17.757 14.18,18.048 13.374,18.048C12.568,18.048 11.867,17.752 11.271,17.16C10.675,16.569 10.378,15.866 10.378,15.053C9.034,17.249 6.601,18.347 3.078,18.347C0.354,18.347 -1.843,17.563 -3.514,15.994C-5.185,14.425 -6.02,12.382 -6.02,9.864" style="fill:rgb(35,31,32);"/>
                </g>
                <g transform="matrix(1,0,0,1,32.2367,110.371)">
                    <path d="M0,13.674C0,16.403 0.507,18.463 1.521,19.854C2.536,21.245 4.013,21.941 5.951,21.941C7.6,21.941 8.927,21.409 9.932,20.345C10.938,19.281 11.44,17.803 11.44,15.911L11.44,8.19C11.386,8.117 11.304,8.017 11.196,7.89C11.086,7.762 10.847,7.535 10.476,7.208C10.104,6.88 9.719,6.589 9.321,6.335C8.922,6.08 8.415,5.852 7.799,5.653C7.183,5.452 6.567,5.352 5.951,5.352C4.031,5.352 2.559,6.053 1.535,7.453C0.512,8.854 0,10.927 0,13.674M-6.02,13.674C-6.02,9.22 -5.029,5.866 -3.047,3.612C-1.065,1.359 1.726,0.232 5.326,0.232C6.576,0.232 7.758,0.449 8.872,0.885C9.986,1.321 10.842,1.839 11.44,2.438L11.44,-10.392C11.44,-11.227 11.734,-11.935 12.321,-12.516C12.909,-13.097 13.619,-13.388 14.45,-13.388C15.282,-13.388 15.991,-13.097 16.579,-12.516C17.166,-11.935 17.46,-11.227 17.46,-10.392L17.46,15.894C17.46,19.489 16.411,22.25 14.312,24.174C12.212,26.099 9.425,27.062 5.951,27.062C2.115,27.062 -0.839,25.946 -2.911,23.715C-4.984,21.484 -6.02,18.137 -6.02,13.674" style="fill:rgb(35,31,32);"/>
                </g>
                <g transform="matrix(1,0,0,1,59.4447,110.371)">
                    <path d="M0,13.674C0,16.403 0.507,18.463 1.521,19.854C2.536,21.245 4.013,21.941 5.951,21.941C7.6,21.941 8.927,21.409 9.932,20.345C10.938,19.281 11.44,17.803 11.44,15.911L11.44,8.19C11.386,8.117 11.304,8.017 11.196,7.89C11.086,7.762 10.847,7.535 10.476,7.208C10.104,6.88 9.719,6.589 9.321,6.335C8.922,6.08 8.415,5.852 7.799,5.653C7.183,5.452 6.567,5.352 5.951,5.352C4.031,5.352 2.559,6.053 1.535,7.453C0.512,8.854 0,10.927 0,13.674M-6.02,13.674C-6.02,9.22 -5.029,5.866 -3.047,3.612C-1.065,1.359 1.726,0.232 5.326,0.232C6.576,0.232 7.758,0.449 8.872,0.885C9.986,1.321 10.842,1.839 11.44,2.438L11.44,-10.392C11.44,-11.227 11.734,-11.935 12.321,-12.516C12.909,-13.097 13.619,-13.388 14.45,-13.388C15.282,-13.388 15.991,-13.097 16.579,-12.516C17.166,-11.935 17.46,-11.227 17.46,-10.392L17.46,15.894C17.46,19.489 16.411,22.25 14.312,24.174C12.212,26.099 9.425,27.062 5.951,27.062C2.115,27.062 -0.839,25.946 -2.911,23.715C-4.984,21.484 -6.02,18.137 -6.02,13.674" style="fill:rgb(35,31,32);"/>
                </g>
                <g transform="matrix(1,0,0,1,81.6268,121.416)">
                    <path d="M0,5.53L0,-7.491C0,-8.325 0.295,-9.033 0.885,-9.615C1.475,-10.196 2.188,-10.487 3.023,-10.487C3.859,-10.487 4.567,-10.196 5.148,-9.614C5.729,-9.032 6.02,-8.323 6.02,-7.487L6.02,5.551C6.02,7.06 6.388,8.274 7.123,9.192C7.858,10.11 9.17,10.569 11.059,10.569C14.364,10.569 16.017,8.897 16.017,5.551L16.017,-7.487C16.017,-8.323 16.312,-9.032 16.902,-9.614C17.492,-10.196 18.205,-10.487 19.04,-10.487C19.875,-10.487 20.583,-10.196 21.165,-9.615C21.746,-9.033 22.037,-8.325 22.037,-7.491L22.037,5.53C22.037,7.019 21.877,8.345 21.56,9.507C21.242,10.669 20.697,11.763 19.925,12.789C19.153,13.815 18.019,14.61 16.521,15.173C15.022,15.735 13.202,16.017 11.059,16.017C9.316,16.017 7.786,15.826 6.469,15.445C5.152,15.064 4.09,14.555 3.282,13.92C2.474,13.284 1.82,12.503 1.321,11.577C0.822,10.651 0.477,9.707 0.286,8.744C0.096,7.782 0,6.711 0,5.53" style="fill:rgb(198,57,47);"/>
                </g>
                <g transform="matrix(1,0,0,1,114.521,108.133)">
                    <path d="M0,18.149C0,20.041 0.504,21.519 1.515,22.583C2.525,23.647 3.859,24.179 5.515,24.179C7.463,24.179 8.946,23.483 9.965,22.091C10.985,20.7 11.495,18.64 11.495,15.912C11.495,13.165 10.98,11.091 9.952,9.691C8.924,8.291 7.445,7.59 5.515,7.59C4.896,7.59 4.282,7.686 3.672,7.877C3.062,8.067 2.543,8.304 2.116,8.586C1.688,8.868 1.31,9.15 0.982,9.432C0.655,9.714 0.409,9.955 0.246,10.155L0,10.428L0,18.149ZM-6.02,18.131L-6.02,-8.154C-6.02,-8.989 -5.726,-9.697 -5.139,-10.279C-4.552,-10.86 -3.842,-11.15 -3.01,-11.15C-2.178,-11.15 -1.469,-10.86 -0.881,-10.279C-0.294,-9.697 0,-8.989 0,-8.154L0,4.675C0.601,4.076 1.46,3.559 2.58,3.123C3.699,2.687 4.887,2.469 6.143,2.469C9.751,2.469 12.548,3.596 14.535,5.85C16.521,8.104 17.515,11.458 17.515,15.912C17.515,20.375 16.476,23.721 14.398,25.953C12.321,28.184 9.36,29.299 5.515,29.299C2.033,29.299 -0.76,28.337 -2.864,26.412C-4.968,24.487 -6.02,21.727 -6.02,18.131" style="fill:rgb(35,31,32);"/>
                </g>
                <g transform="matrix(1,0,0,1,142.016,108.133)">
                    <path d="M0,18.149C0,20.041 0.504,21.519 1.515,22.583C2.525,23.647 3.859,24.179 5.515,24.179C7.463,24.179 8.946,23.483 9.965,22.091C10.985,20.7 11.495,18.64 11.495,15.912C11.495,13.165 10.98,11.091 9.952,9.691C8.924,8.291 7.445,7.59 5.515,7.59C4.896,7.59 4.282,7.686 3.672,7.877C3.062,8.067 2.543,8.304 2.116,8.586C1.688,8.868 1.31,9.15 0.982,9.432C0.655,9.714 0.409,9.955 0.246,10.155L0,10.428L0,18.149ZM-6.02,18.131L-6.02,-8.154C-6.02,-8.989 -5.726,-9.697 -5.139,-10.279C-4.552,-10.86 -3.842,-11.15 -3.01,-11.15C-2.178,-11.15 -1.469,-10.86 -0.881,-10.279C-0.294,-9.697 0,-8.989 0,-8.154L0,4.675C0.601,4.076 1.46,3.559 2.58,3.123C3.699,2.687 4.887,2.469 6.143,2.469C9.751,2.469 12.548,3.596 14.535,5.85C16.521,8.104 17.515,11.458 17.515,15.912C17.515,20.375 16.476,23.721 14.398,25.953C12.321,28.184 9.36,29.299 5.515,29.299C2.033,29.299 -0.76,28.337 -2.864,26.412C-4.968,24.487 -6.02,21.727 -6.02,18.131" style="fill:rgb(35,31,32);"/>
                </g>
                <g transform="matrix(1,0,0,1,160.741,111.748)">
                    <path d="M0,35.352C-0.554,34.805 -0.831,34.125 -0.831,33.31C-0.831,32.496 -0.554,31.82 0,31.284C0.554,30.747 1.24,30.478 2.057,30.478C3.709,30.478 5.043,29.885 6.061,28.701C7.078,27.515 8.104,25.637 9.139,23.068L0.559,3.334C0.413,2.972 0.341,2.583 0.341,2.166C0.341,1.334 0.631,0.628 1.212,0.049C1.793,-0.529 2.501,-0.819 3.337,-0.819C4.082,-0.819 4.689,-0.625 5.162,-0.236C5.634,0.153 5.961,0.583 6.143,1.054L12.271,16.526L18.4,1.054C18.582,0.583 18.908,0.153 19.381,-0.236C19.853,-0.625 20.461,-0.819 21.206,-0.819C22.041,-0.819 22.749,-0.529 23.331,0.049C23.911,0.628 24.202,1.334 24.202,2.166C24.202,2.584 24.129,2.975 23.984,3.338L13.606,26.798C10.81,33.047 6.959,36.171 2.057,36.171C1.24,36.171 0.554,35.898 0,35.352" style="fill:rgb(35,31,32);"/>
                </g>
            </g>
        </g>
    </g>
</svg>
