<svg id="Riolabs-logo" xmlns="http://www.w3.org/2000/svg" viewBox="0 0 364.53 84.18"><defs><style>.cls-1{fill:#231f20;}</style></defs><g id="riolabs-logotype-positive"><path class="cls-1" d="M44.19,53a23.6,23.6,0,0,0,8.64-8.43A22.07,22.07,0,0,0,56,32.9,22.66,22.66,0,0,0,52.83,21a23.51,23.51,0,0,0-8.69-8.43A24.14,24.14,0,0,0,32,9.41H0V83.13H13.38V56.07H27.52L42.77,83.13l16.22.1L42.07,54C42.79,53.7,43.5,53.35,44.19,53ZM13.38,21.74H29.71a14.05,14.05,0,0,1,6.53,1.47,10.68,10.68,0,0,1,6,10A12.37,12.37,0,0,1,41,38.8a9.58,9.58,0,0,1-3.53,3.94,9.77,9.77,0,0,1-5.32,1.43H13.38Z"/><rect class="cls-1" x="70.1" y="27.63" width="12.96" height="55.5"/><path class="cls-1" d="M138.22,30.21a31.15,31.15,0,0,0-29.6,0A27.67,27.67,0,0,0,98.29,40.48,29.09,29.09,0,0,0,94.5,55.33a29.11,29.11,0,0,0,3.79,14.85,27.57,27.57,0,0,0,10.33,10.26,31.15,31.15,0,0,0,29.6,0,27.2,27.2,0,0,0,10.27-10.26,29.38,29.38,0,0,0,3.74-14.85,29.36,29.36,0,0,0-3.74-14.85A27.3,27.3,0,0,0,138.22,30.21Zm-1.11,34a16.54,16.54,0,0,1-5.58,6.22,14.38,14.38,0,0,1-8.06,2.31,14.88,14.88,0,0,1-8.16-2.31,15.74,15.74,0,0,1-5.64-6.22,19.09,19.09,0,0,1-2-8.84,19.46,19.46,0,0,1,2-8.9,15.26,15.26,0,0,1,5.64-6.21A15.1,15.1,0,0,1,123.47,38a14.59,14.59,0,0,1,8.06,2.27,16.06,16.06,0,0,1,5.58,6.16,18.08,18.08,0,0,1,1.95,8.95A17.8,17.8,0,0,1,137.11,64.17Z"/><rect class="cls-1" x="163.41" y="5.2" width="13.06" height="77.93"/><path class="cls-1" d="M231.11,35.45a20.79,20.79,0,0,0-3.9-4.34,19,19,0,0,0-6.11-3.42,23.19,23.19,0,0,0-7.69-1.22,23.77,23.77,0,0,0-13.06,3.69,25.85,25.85,0,0,0-9.17,10.22,31.84,31.84,0,0,0-3.37,14.84,31.85,31.85,0,0,0,3.37,14.85,27.36,27.36,0,0,0,9,10.32,21.6,21.6,0,0,0,12.43,3.79,22.29,22.29,0,0,0,7.53-1.26,26.36,26.36,0,0,0,6.42-3.32A21,21,0,0,0,231,75.33v7.8h13.17V27.63H231.11Zm-7,35a14.51,14.51,0,0,1-8,2.21,14.27,14.27,0,0,1-8-2.21,14.64,14.64,0,0,1-5.32-6.16,20.72,20.72,0,0,1-1.9-9.11,20.13,20.13,0,0,1,1.9-8.95,14.81,14.81,0,0,1,5.32-6.11,14.35,14.35,0,0,1,8-2.21,14.59,14.59,0,0,1,8,2.21,15.13,15.13,0,0,1,5.43,6.11,19.74,19.74,0,0,1,1.95,8.95,20.32,20.32,0,0,1-1.95,9.11A15,15,0,0,1,224.15,70.49Z"/><path class="cls-1" d="M301.93,30.16a23.93,23.93,0,0,0-13.22-3.69,20.51,20.51,0,0,0-6.64,1.11,25,25,0,0,0-6,3,20.88,20.88,0,0,0-4.59,4.11l-.05.07V5.2h-13V82.92H271l.16-6.69a20.75,20.75,0,0,0,4.37,3.84,24.76,24.76,0,0,0,6.37,3,24.22,24.22,0,0,0,7.22,1.1A23.08,23.08,0,0,0,302,80.44a25.65,25.65,0,0,0,9-10.26,33,33,0,0,0,3.27-15A32.32,32.32,0,0,0,311,40.38,25.6,25.6,0,0,0,301.93,30.16Zm-2.16,34.17a15.7,15.7,0,0,1-5.48,6.21,14.08,14.08,0,0,1-7.9,2.27,14.28,14.28,0,0,1-8-2.27,15.67,15.67,0,0,1-5.47-6.21,19.81,19.81,0,0,1-2-9.11,19.25,19.25,0,0,1,2-8.95,15.52,15.52,0,0,1,5.47-6.11,15.62,15.62,0,0,1,16,0,15.18,15.18,0,0,1,5.42,6.11,19.74,19.74,0,0,1,1.95,8.95A19.93,19.93,0,0,1,299.77,64.33Z"/><path class="cls-1" d="M363.69,61.44A10.71,10.71,0,0,0,360.85,57a17.86,17.86,0,0,0-5.48-3.89,48.76,48.76,0,0,0-8.64-3.06,39.23,39.23,0,0,1-6-1.79,22.89,22.89,0,0,1-3.48-1.68,5.07,5.07,0,0,1-1.63-1.85,6,6,0,0,1-.69-2.36,5.4,5.4,0,0,1,.58-2.58A5.25,5.25,0,0,1,337.14,38a7.43,7.43,0,0,1,2.64-1.1,15.51,15.51,0,0,1,3.58-.37,13.3,13.3,0,0,1,4.53.89,27,27,0,0,1,4.79,2.37,27.77,27.77,0,0,1,4.37,3.37l7.17-7.9a23,23,0,0,0-5.85-4.68,30.82,30.82,0,0,0-7.37-3,31.73,31.73,0,0,0-8.17-1.06,27,27,0,0,0-7.9,1.16A20.53,20.53,0,0,0,328.3,31a16.61,16.61,0,0,0-4.48,5.22,13.73,13.73,0,0,0-1.63,6.68,16.24,16.24,0,0,0,.89,5.48,13.55,13.55,0,0,0,2.69,4.53,19.56,19.56,0,0,0,5.9,4.37,45.87,45.87,0,0,0,9.48,3.42A50.68,50.68,0,0,1,347,62.38,16,16,0,0,1,350.31,64a4.8,4.8,0,0,1,1.9,4,5.33,5.33,0,0,1-.58,2.48,6.16,6.16,0,0,1-1.63,2,7.26,7.26,0,0,1-2.48,1.26,11.35,11.35,0,0,1-3.21.42,21.56,21.56,0,0,1-8.22-1.58A18.83,18.83,0,0,1,329,67.33l-8.42,7.27a23.69,23.69,0,0,0,9.53,7.11,33.61,33.61,0,0,0,13.22,2.47A25.58,25.58,0,0,0,354.16,82a18.74,18.74,0,0,0,7.58-6.11A14.78,14.78,0,0,0,364.53,67,17.57,17.57,0,0,0,363.69,61.44Z"/><path class="cls-1" d="M76.51,16.62a8.43,8.43,0,0,1-4.28-1.08,8,8,0,0,1-3-3,8.3,8.3,0,0,1-1.09-4.27A8.36,8.36,0,0,1,69.26,4a7.93,7.93,0,0,1,3-2.95A8.43,8.43,0,0,1,76.51,0a8.33,8.33,0,0,1,4.24,1.08,7.77,7.77,0,0,1,3,3,8.45,8.45,0,0,1,1.08,4.28,8.39,8.39,0,0,1-1.08,4.27,7.79,7.79,0,0,1-3,3A8.33,8.33,0,0,1,76.51,16.62Z"/></g></svg>